<?xml version="1.0" encoding="utf-8"?>
<!-- Generator: Adobe Illustrator 24.1.0, SVG Export Plug-In . SVG Version: 6.00 Build 0)  -->
<svg version="1.1" id="Layer_1" xmlns="http://www.w3.org/2000/svg" xmlns:xlink="http://www.w3.org/1999/xlink" x="0px" y="0px"
	 viewBox="0 0 480 480" style="enable-background:new 0 0 480 480;" xml:space="preserve">
<style type="text/css">
	.st0{fill:#5AAE8D;}
</style>
<path d="M478.9,217.9C467.5,94.5,364,0,240,0C107.5,0,0,107.5,0,240s107.5,240,240,240c7.2,0,14.4-0.3,21.6-1
	c6.7-0.6,13.3-1.5,19.8-2.7l2.5-0.5C405.8,453.2,490.3,341.4,478.9,217.9z M384,411.5l-1.1,0.9c-4.5,3.7-9.1,7.3-13.8,10.6
	c-0.6,0.4-1.3,0.8-1.9,1.3c-4.8,3.3-9.6,6.4-14.6,9.3c-0.6,0.4-1.3,0.7-1.9,1.1c-5.1,2.9-10.2,5.6-15.5,8c-0.6,0.3-1.2,0.5-1.8,0.8
	c-5.3,2.5-10.7,4.7-16.2,6.7c-0.5,0.2-1.1,0.4-1.6,0.6c-5.6,2-11.3,3.8-17,5.4l-1.4,0.3c-5.9,1.5-11.8,2.9-17.8,4
	c-0.4,0.1-0.7,0.1-1,0.2c-6.1,1.1-12.3,1.9-18.5,2.5h-0.6c-6.4,0.6-12.8,0.9-19.3,0.9c-6.5,0-12.9-0.2-19.3-0.8h-0.6
	c-6.2-0.6-12.4-1.4-18.5-2.5c-0.3-0.1-0.7-0.1-1-0.2c-6-1.1-11.9-2.4-17.8-3.9l-1.4-0.4c-5.7-1.5-11.4-3.3-17-5.3
	c-0.6-0.2-1.2-0.4-1.7-0.6c-5.5-2-10.8-4.3-16.1-6.7c-0.7-0.3-1.3-0.6-2-0.9c-5.2-2.4-10.3-5.1-15.2-8c-0.7-0.4-1.4-0.8-2.1-1.2
	c-4.9-2.9-9.7-5.9-14.4-9.2c-0.7-0.5-1.4-1-2.1-1.5c-4.6-3.3-9.1-6.8-13.5-10.4l-1.2-1V344c0.1-48.6,39.4-87.9,88-88h112
	c48.6,0.1,87.9,39.4,88,88V411.5z M400,396.6V344c-0.1-57.4-46.6-103.9-104-104H184c-57.4,0.1-103.9,46.6-104,104v52.6
	C-6.2,308.7-5.2,167.7,82.2,80.9s228.3-86.8,315.7,0S486.2,308.7,400,396.6z"/>
<path class="st0" d="M397.8,80.9c-87.3-86.8-228.3-86.8-315.7,0S-6.2,308.7,80,396.6V344c0.1-57.4,46.6-103.9,104-104h112
	c57.4,0.1,103.9,46.6,104,104v52.6C486.2,308.7,485.2,167.7,397.8,80.9z M240,232c-56.6,0-102.5-45.9-102.5-102.5S183.4,27,240,27
	c56.6,0.1,102.4,45.9,102.5,102.5C342.5,186.1,296.6,232,240,232z"/>
<path d="M240,27c-56.6,0-102.5,45.9-102.5,102.5S183.4,232,240,232c56.6,0,102.5-45.9,102.5-102.5C342.4,72.9,296.5,27.1,240,27z
	 M240,211.5c-45.3,0-82-36.7-82-82s36.7-82,82-82c45.3,0,82,36.7,82,82C321.9,174.8,285.2,211.5,240,211.5z"/>
<circle cx="267.8" cy="110.8" r="10.8"/>
<circle cx="210.8" cy="110.8" r="10.8"/>
<path d="M280.1,150.9c0,22.1-18,40.1-40.1,40.1s-40.1-18-40.1-40.1H280.1z"/>
</svg>
